<?xml version="1.0" ?><svg height="512" id="svg2" version="1.1" width="512" xmlns="http://www.w3.org/2000/svg" xmlns:cc="http://creativecommons.org/ns#" xmlns:dc="http://purl.org/dc/elements/1.1/" xmlns:inkscape="http://www.inkscape.org/namespaces/inkscape" xmlns:rdf="http://www.w3.org/1999/02/22-rdf-syntax-ns#" xmlns:sodipodi="http://sodipodi.sourceforge.net/DTD/sodipodi-0.dtd" xmlns:svg="http://www.w3.org/2000/svg"><defs id="defs4"/><g id="layer1" transform="translate(0,-540.36218)"><path d="M 80 136 L 80 184 L 128 184 L 128 136 L 80 136 z M 160 136 L 160 184 L 384 184 L 384 136 L 160 136 z M 80 232 L 80 280 L 128 280 L 128 232 L 80 232 z M 160 232 L 160 280 L 320 280 L 320 232 L 160 232 z M 80 328 L 80 376 L 128 376 L 128 328 L 80 328 z M 160 328 L 160 376 L 432 376 L 432 328 L 160 328 z " id="rect2985" style="color:#000000;fill:#222222;fill-opacity:1;fill-rule:nonzero;stroke:none;stroke-width:20;marker:none;visibility:visible;display:inline;overflow:visible;enable-background:accumulate" transform="translate(0,540.36218)"/></g></svg>